<?xml version="1.0" standalone="no"?>
<!DOCTYPE svg PUBLIC "-//W3C//DTD SVG 20010904//EN"
 "http://www.w3.org/TR/2001/REC-SVG-20010904/DTD/svg10.dtd">
<svg version="1.0" xmlns="http://www.w3.org/2000/svg"
 width="338.000000pt" height="338.000000pt" viewBox="0 0 338.000000 338.000000"
 preserveAspectRatio="xMidYMid meet">

<g transform="translate(0.000000,338.000000) scale(0.100000,-0.100000)"
fill="#000000" stroke="none">
<path d="M291 3114 c-152 -55 -243 -184 -243 -346 -1 -65 4 -86 30 -141 37
-80 96 -141 170 -175 49 -22 71 -26 157 -26 87 -1 107 3 155 25 65 31 142 109
173 177 17 38 22 66 22 142 0 82 -4 103 -26 151 -37 79 -90 133 -167 171 -56
28 -79 33 -147 36 -54 1 -94 -3 -124 -14z m207 -245 c13 -16 30 -29 37 -29 7
0 16 -7 19 -16 9 -23 -2 -54 -20 -54 -8 0 -14 -7 -14 -15 0 -8 -16 -33 -36
-55 -27 -30 -35 -46 -30 -63 7 -31 -19 -67 -49 -67 -33 0 -55 26 -55 65 0 23
-9 43 -27 63 -49 52 -73 90 -73 110 0 27 15 35 30 17 18 -22 30 -18 30 9 0 31
34 56 77 56 19 0 40 8 51 19 15 16 18 16 27 3 6 -8 21 -28 33 -43z m-191 -321
c-3 -7 -5 -2 -5 12 0 14 2 19 5 13 2 -7 2 -19 0 -25z m66 -44 c-21 -16 -37
-18 -28 -4 3 6 -3 10 -14 10 -11 0 -23 -4 -26 -10 -3 -5 1 -10 9 -10 9 0 16
-4 16 -9 0 -9 -55 -5 -71 5 -13 7 0 26 14 21 7 -2 20 2 29 10 13 12 21 12 38
3 12 -6 24 -9 27 -6 3 3 -2 8 -11 12 -9 3 -16 10 -16 15 0 5 11 2 25 -7 24
-15 24 -17 8 -30z m27 -14 c0 -5 -6 -10 -12 -11 -10 0 -10 -2 0 -6 24 -9 12
-23 -15 -17 -32 8 -21 -10 12 -20 11 -3 7 -3 -10 0 -16 3 -45 8 -62 11 -43 7
-43 20 0 15 23 -3 38 2 51 17 20 23 36 27 36 11z"/>
<path d="M1153 3116 c-171 -56 -283 -248 -243 -417 29 -124 110 -218 224 -258
254 -89 503 96 484 359 -10 129 -89 244 -206 298 -69 31 -192 40 -259 18z
m225 -263 c38 -36 42 -44 32 -62 -6 -12 -14 -21 -19 -21 -5 0 -14 -13 -21 -29
-6 -16 -22 -39 -36 -52 -31 -29 -31 -57 2 -69 14 -6 24 -13 22 -18 -2 -4 -9
-23 -17 -43 l-14 -36 -64 1 c-64 1 -65 2 -84 36 -24 46 -24 49 6 60 33 12 31
37 -5 80 -17 19 -30 40 -30 47 0 7 -9 17 -20 23 -11 6 -20 21 -20 35 0 30 14
39 30 20 15 -18 30 -11 30 15 0 25 37 50 76 50 19 0 38 8 50 21 18 20 19 20
29 2 5 -10 29 -37 53 -60z"/>
<path d="M2861 3114 c-93 -33 -161 -93 -208 -184 -25 -50 -28 -65 -28 -155 0
-89 3 -106 28 -157 15 -31 46 -76 69 -99 l42 -43 16 54 c16 55 16 55 70 70 30
8 60 18 65 21 15 8 107 3 135 -8 14 -6 42 -13 62 -17 41 -7 53 -22 63 -79 4
-20 11 -37 15 -37 19 0 102 109 122 160 33 85 31 196 -6 278 -37 80 -122 162
-201 191 -67 25 -179 27 -244 5z m205 -220 c3 -75 5 -84 14 -84 6 0 10 9 10
21 0 14 5 19 18 17 25 -5 27 -44 3 -65 -12 -9 -21 -26 -21 -36 0 -27 -56 -75
-96 -83 -51 -9 -102 20 -125 72 -10 23 -26 47 -34 54 -19 15 -19 44 -2 59 16
13 27 5 27 -21 0 -11 5 -16 10 -13 6 3 10 21 10 39 0 33 1 33 54 39 30 3 67
12 83 21 37 20 48 15 49 -20z"/>
<path d="M2003 3102 c-143 -51 -231 -167 -241 -318 -5 -87 14 -161 60 -226 32
-44 102 -108 118 -108 5 0 11 23 15 50 5 37 14 55 32 70 15 11 27 19 29 18 1
-2 -4 -28 -12 -58 -24 -93 -21 -106 30 -119 25 -6 63 -11 86 -11 23 0 61 5 86
11 51 13 54 26 29 119 -8 30 -13 55 -11 57 2 2 14 -6 28 -17 19 -14 27 -33 32
-70 4 -27 11 -50 17 -50 6 0 34 23 63 50 186 175 138 474 -93 587 -72 36 -192
42 -268 15z m236 -263 c33 -24 41 -62 17 -76 -7 -4 -21 -23 -30 -41 -9 -18
-25 -38 -36 -45 -11 -6 -20 -21 -20 -32 0 -30 -42 -165 -51 -165 -10 0 -49
123 -49 152 0 19 -22 51 -82 120 -32 36 -33 38 -15 62 12 16 14 16 26 2 12
-14 15 -12 30 16 13 28 23 34 59 39 24 3 52 15 64 27 l22 21 17 -29 c10 -16
32 -39 48 -51z"/>
<path d="M2034 2056 c-239 -60 -348 -338 -214 -544 32 -51 99 -112 121 -112 4
0 9 22 13 49 4 29 14 55 26 66 20 18 20 18 13 -16 -4 -19 -8 -54 -8 -78 0 -45
0 -45 45 -59 53 -16 173 -12 209 7 22 12 23 18 18 70 -3 31 -9 65 -13 76 -7
19 -7 19 13 2 13 -11 23 -36 27 -67 4 -28 11 -50 16 -50 10 0 66 45 93 75 10
11 32 49 50 85 27 57 31 75 31 145 0 112 -29 182 -105 256 -90 89 -218 125
-335 95z m116 -211 c0 -21 68 -75 95 -75 20 0 25 -5 25 -26 0 -15 -9 -36 -20
-48 -75 -78 -99 -129 -65 -142 37 -14 -21 -94 -67 -94 -52 0 -104 78 -63 94
23 9 18 52 -8 69 -13 9 -30 29 -37 46 -7 17 -16 31 -21 31 -14 0 -29 37 -23
54 3 9 11 16 18 16 6 0 18 13 27 29 12 20 29 31 62 39 25 7 49 17 52 22 8 13
25 3 25 -15z"/>
<path d="M2904 2060 c-102 -21 -203 -100 -252 -200 -24 -49 -27 -67 -27 -155
0 -95 2 -103 34 -163 66 -122 164 -184 301 -190 109 -5 177 19 253 88 215 197
133 542 -148 615 -64 16 -97 17 -161 5z m134 -131 c30 -7 58 -21 62 -30 5 -9
15 -50 21 -90 10 -63 9 -74 -4 -84 -9 -6 -23 -29 -32 -52 -19 -48 -86 -88
-130 -77 -36 9 -95 67 -95 92 0 12 -9 26 -20 32 -21 11 -28 54 -10 65 6 3 10
24 10 45 0 53 18 90 45 90 11 0 25 4 31 9 10 10 44 20 59 16 6 -1 34 -8 63
-16z m-87 -370 c14 -7 29 -7 50 0 42 14 47 -6 15 -64 l-25 -47 -3 43 c-4 53
-22 54 -26 3 l-3 -36 -25 46 c-31 58 -25 78 17 55z"/>
<path d="M2951 1671 c-9 -6 0 -10 28 -13 41 -4 55 5 25 16 -21 8 -36 7 -53 -3z"/>
<path d="M350 2013 c-45 -7 -110 -34 -105 -44 4 -5 0 -6 -7 -4 -21 8 -93 -50
-128 -103 -64 -97 -78 -241 -33 -344 20 -44 97 -138 113 -138 5 0 11 18 15 40
8 45 29 64 85 75 19 4 41 12 47 17 8 7 22 7 41 0 17 -6 35 -6 43 -1 42 26 62
-2 35 -50 l-13 -24 -18 26 c-9 15 -21 25 -25 22 -12 -7 -21 -144 -10 -164 9
-17 14 -18 72 -7 125 24 215 93 265 203 90 197 -23 433 -234 488 -55 15 -91
17 -143 8z m120 -186 c19 -10 25 -21 26 -47 1 -63 4 -80 14 -80 6 0 10 9 10
21 0 14 5 19 18 17 22 -4 29 -48 9 -63 -8 -6 -22 -27 -30 -48 -43 -101 -184
-102 -228 -1 -11 24 -24 44 -29 44 -15 0 -22 38 -10 60 9 17 14 19 26 9 8 -6
14 -19 15 -28 2 -28 17 32 18 72 1 29 6 40 24 47 33 13 108 12 137 -3z"/>
<path d="M1156 2004 c-99 -31 -178 -102 -223 -199 -23 -51 -28 -73 -28 -145 0
-71 5 -94 27 -141 29 -64 86 -131 139 -165 92 -58 235 -69 332 -26 65 29 151
113 184 181 25 49 28 68 28 151 0 84 -3 102 -28 152 -36 73 -101 139 -173 174
-70 34 -183 42 -258 18z m185 -171 c8 -9 12 -37 11 -70 -2 -38 3 -64 13 -80
14 -20 14 -27 3 -41 -21 -27 -30 -31 -55 -21 -32 12 -80 11 -103 -1 -39 -21
-80 29 -54 65 8 11 14 44 14 80 0 34 5 66 12 73 17 17 144 14 159 -5z m-201
-128 c0 -39 -14 -46 -30 -16 -12 23 -3 51 16 51 9 0 14 -12 14 -35z m273 16
c5 -22 -11 -54 -24 -46 -5 4 -9 16 -9 29 0 37 24 50 33 17z m-178 -213 c19 -8
31 -8 50 0 14 6 32 9 40 6 12 -5 11 -11 -10 -36 -14 -16 -25 -38 -25 -48 0
-10 -5 -22 -10 -25 -6 -4 -10 -3 -9 2 1 4 1 23 0 41 -2 47 -19 39 -23 -10 -4
-42 -4 -42 -12 -13 -5 17 -18 40 -28 52 -11 12 -17 26 -13 32 8 14 8 14 40 -1z"/>
<path d="M285 1350 c3 -5 19 -10 35 -10 16 0 32 5 35 10 4 6 -10 10 -35 10
-25 0 -39 -4 -35 -10z"/>
<path d="M297 950 c-158 -50 -252 -182 -251 -350 0 -104 35 -180 118 -257 l61
-56 11 55 c14 70 18 77 70 100 53 23 57 45 14 97 -16 20 -39 47 -50 60 -22 27
-26 56 -9 67 6 3 16 1 22 -5 17 -17 27 -13 27 8 0 30 28 51 68 51 23 0 44 8
60 23 20 18 26 19 30 7 2 -8 24 -34 48 -57 48 -47 54 -65 25 -85 -10 -7 -25
-27 -35 -45 -9 -18 -25 -37 -36 -43 -11 -6 -20 -21 -20 -34 0 -17 11 -28 51
-47 55 -25 69 -47 69 -105 0 -47 20 -44 79 11 73 68 105 141 109 245 4 97 -16
166 -68 237 -59 81 -190 144 -295 142 -22 0 -66 -8 -98 -19z"/>
<path d="M1169 957 c-240 -68 -343 -348 -204 -552 69 -101 163 -147 300 -148
146 -2 255 64 317 191 30 61 33 74 33 162 -1 115 -20 165 -95 244 -88 94 -234
136 -351 103z m126 -217 c17 -34 81 -81 100 -74 7 3 15 -2 19 -11 6 -18 -9
-55 -24 -55 -5 0 -11 -9 -15 -19 -3 -11 -19 -32 -35 -48 -21 -21 -29 -39 -32
-73 -2 -36 -8 -47 -30 -59 -24 -14 -28 -14 -47 3 -15 13 -21 31 -21 59 0 39
-19 70 -80 133 -22 23 -27 74 -7 74 6 0 19 13 28 29 12 20 29 31 62 39 25 7
49 16 52 22 9 15 13 13 30 -20z m-100 -299 c-6 -5 -21 -11 -35 -15 -21 -5 -20
-3 5 9 35 17 42 18 30 6z m41 -61 c21 -8 22 -12 11 -39 -7 -18 -19 -31 -29
-31 -11 0 -15 -5 -12 -14 7 -19 -7 -25 -31 -15 -18 9 -18 9 3 5 15 -3 22 0 19
7 -2 7 2 20 11 30 9 10 11 17 4 17 -6 0 -16 -8 -21 -19 -6 -10 -20 -21 -31
-24 -13 -3 -18 -1 -13 6 4 7 0 8 -11 4 -11 -5 -15 -3 -10 5 5 7 2 9 -7 6 -18
-7 -25 47 -8 58 8 5 10 2 5 -7 -4 -8 -1 -5 8 5 8 10 13 23 10 27 -9 15 8 10
28 -8 17 -15 18 -15 18 6 0 21 1 21 17 6 9 -9 26 -21 39 -25z"/>
<path d="M1200 367 c0 -7 9 -13 20 -13 24 0 26 11 4 20 -22 8 -24 8 -24 -7z"/>
<path d="M1110 339 c0 -3 8 -9 18 -13 9 -3 23 -9 31 -12 7 -4 5 2 -5 13 -19
19 -44 26 -44 12z"/>
<path d="M2903 960 c-99 -21 -204 -104 -250 -199 -25 -49 -28 -68 -28 -151 0
-82 4 -103 26 -151 25 -52 92 -139 108 -139 4 0 13 22 20 50 12 47 15 50 54
60 23 6 54 15 69 20 33 10 49 -6 37 -35 -11 -29 -11 -28 15 -64 l24 -32 22 31
c18 25 20 35 12 60 -8 22 -7 31 4 41 11 9 18 9 26 1 7 -7 22 -12 34 -12 11 0
35 -5 52 -11 25 -9 34 -20 44 -52 6 -23 14 -46 18 -50 13 -15 98 93 121 151
32 84 30 191 -5 268 -42 91 -87 138 -169 178 -79 39 -161 51 -234 36z m155
-193 c6 -5 12 -22 12 -37 0 -44 12 -90 21 -84 5 3 9 14 9 25 0 28 24 18 28
-11 2 -13 -3 -29 -11 -35 -9 -6 -23 -29 -32 -52 -19 -47 -88 -89 -127 -77 -41
12 -80 46 -95 83 -8 19 -22 40 -30 46 -18 14 -13 60 7 60 8 0 17 -11 20 -25 9
-39 24 -5 23 52 -1 51 8 64 47 70 35 6 112 -3 128 -15z"/>
<path d="M2024 951 c-53 -14 -135 -64 -170 -105 -98 -114 -117 -279 -46 -409
36 -68 119 -141 189 -167 74 -28 193 -25 266 8 72 32 159 124 186 197 34 92
32 196 -7 279 -36 76 -92 135 -164 172 -43 23 -69 28 -138 30 -47 2 -99 0
-116 -5z m166 -195 c5 -13 14 -27 19 -31 6 -3 11 -18 11 -32 0 -21 2 -23 15
-13 37 31 62 -23 26 -59 -10 -10 -21 -30 -25 -44 -7 -30 -58 -71 -99 -81 -47
-11 -111 24 -130 71 -8 21 -22 45 -31 52 -23 19 -21 62 4 68 11 3 20 11 20 19
0 7 9 18 20 24 11 6 20 20 20 30 0 18 7 20 70 20 65 0 71 -2 80 -24z m-210
-160 c0 -2 -7 -7 -16 -10 -8 -3 -12 -2 -9 4 6 10 25 14 25 6z"/>
</g>
</svg>
